<?xml version="1.0" encoding="UTF-8"?>
<svg id="Layer_1" data-name="Layer 1" xmlns="http://www.w3.org/2000/svg" viewBox="0 0 374.57 83.4">
  <defs>
    <style>
      .cls-1 {
        fill-rule: evenodd;
      }

      .cls-1, .cls-2 {
        fill: #003cff;
      }

      .cls-3 {
        fill: #00cb35;
      }

      .cls-4 {
        fill: #ff1e00;
      }
    </style>
  </defs>
  <g id="_图层_1" data-name="图层_1">
    <g id="_1845476290720" data-name=" 1845476290720">
      <path class="cls-2" d="M47.09,7.45l-9.03,56.26h-17.49c-2.35,0-4.15-2.12-3.76-4.45L25.06,7.45H7.96S.41,54.9.37,55.24c-2.46,14.94,8.03,20.71,17.67,20.71h35.19L64.12,7.45h-17.03Z"/>
      <polygon class="cls-1" points="159.47 75.95 170.55 7.49 153.45 7.49 142.36 75.95 159.47 75.95"/>
      <path class="cls-2" d="M84.6,36.52h11.93c1.44,0,2.51,1.28,2.28,2.69-1.23,7.37-4.67,27.96-6.09,36.74h17.1c1.57-9.76,3.97-24.17,4.9-29.78,2.17-12.22-4.22-18.15-12.56-18.17v-.02h-33.36l-7.87,47.98h17.1l6.57-39.43Z"/>
      <path class="cls-2" d="M344.45,36.52h11.95c1.41,0,2.49,1.28,2.26,2.69-1.23,7.37-4.67,27.96-6.09,36.74h17.1c1.57-9.76,3.97-24.17,4.9-29.78,2.17-12.22-4.22-18.15-12.56-18.17v-.02h-33.36l-7.87,47.98h17.1l6.57-39.43Z"/>
      <path class="cls-2" d="M200.15,67.4h-11.95c-1.41,0-2.51-1.28-2.26-2.67,1.23-7.37,4.67-27.96,6.09-36.76h-17.13c-1.55,9.78-3.97,24.19-4.88,29.8-2.17,12.22,4.22,18.15,12.56,18.17h33.36l7.87-47.98h-17.1l-6.57,39.43Z"/>
      <polygon class="cls-2" points="142.52 27.97 134.63 75.95 117.53 75.95 125.4 27.97 142.52 27.97"/>
      <path class="cls-4" d="M306.32,13.29l-1.82,10.35h17.17l1.87-10.17c.57-3.1-1.82-5.97-4.97-5.97h-5.36c-3.4,0-6.29,2.44-6.89,5.79Z"/>
      <polygon class="cls-2" points="320.64 27.97 312.98 75.95 295.88 75.95 303.54 27.97 320.64 27.97"/>
      <path class="cls-2" d="M231.53,27.97l-7.62,47.98h16.28l6.29-39.4h7.68l-6.45,39.4h15.92l6.48-39.4h4.97c1.41,0,2.49,1.25,2.26,2.67l-6.02,36.74h16.65l4.9-29.78c2.17-12.22-4.22-18.15-12.56-18.17l-48.78-.02Z"/>
      <path class="cls-3" d="M127.86,13.29l-1.82,10.35h17.17l1.87-10.17c.55-3.1-1.82-5.97-4.97-5.97h-5.36c-3.4,0-6.32,2.44-6.89,5.79Z"/>
    </g>
  </g>
</svg>